<svg width="1041" height="363" viewBox="0 0 1041 363" fill="none" xmlns="http://www.w3.org/2000/svg">
  <g class="bright-color" fill="black">
    <path d="M0 169.055V0H110.231V23.5725H12.1948L25.8242 9.52422V87.1466L12.1948 75.0032H105.927V97.8614H12.1948L25.8242 85.718V169.055H0Z"/>
    <path d="M155.47 169.055C147.181 169.055 140.486 166.912 135.385 162.626C130.284 158.34 127.733 151.514 127.733 142.149V0H153.079V139.768C153.079 142.625 153.797 144.768 155.231 146.197C156.825 147.625 159.057 148.34 161.926 148.34H171.969V169.055H155.47Z"/>
    <path d="M238.775 171.912C226.341 171.912 215.581 169.214 206.495 163.817C197.568 158.42 190.634 150.721 185.692 140.72C180.91 130.72 178.519 119.053 178.519 105.719C178.519 92.3849 180.91 80.7971 185.692 70.9554C190.634 60.955 197.568 53.2563 206.495 47.8592C215.422 42.3034 225.943 39.5255 238.058 39.5255C249.535 39.5255 259.658 42.224 268.425 47.6211C277.193 52.8594 283.968 60.4788 288.75 70.4792C293.692 80.4797 296.162 92.5437 296.162 106.671V113.1H204.821C205.459 125.482 208.727 134.768 214.625 140.958C220.682 147.149 228.812 150.245 239.014 150.245C246.506 150.245 252.723 148.498 257.665 145.006C262.607 141.514 266.034 136.831 267.947 130.958L294.249 132.625C290.902 144.371 284.286 153.896 274.403 161.197C264.679 168.341 252.803 171.912 238.775 171.912ZM204.821 94.0517H269.382C268.585 82.7814 265.317 74.4477 259.578 69.0506C253.999 63.6535 246.825 60.955 238.058 60.955C228.972 60.955 221.479 63.8123 215.581 69.5268C209.842 75.0826 206.256 83.2576 204.821 94.0517Z"/>
    <path d="M367.037 171.912C354.603 171.912 343.843 169.214 334.757 163.817C325.83 158.42 318.896 150.721 313.954 140.72C309.172 130.72 306.78 119.053 306.78 105.719C306.78 92.3849 309.172 80.7971 313.954 70.9554C318.896 60.955 325.83 53.2563 334.757 47.8592C343.684 42.3034 354.205 39.5255 366.32 39.5255C377.797 39.5255 387.92 42.224 396.687 47.6211C405.455 52.8594 412.229 60.4788 417.012 70.4792C421.953 80.4797 424.424 92.5437 424.424 106.671V113.1H333.083C333.721 125.482 336.988 134.768 342.887 140.958C348.944 147.149 357.074 150.245 367.276 150.245C374.768 150.245 380.985 148.498 385.927 145.006C390.869 141.514 394.296 136.831 396.209 130.958L422.511 132.625C419.164 144.371 412.548 153.896 402.665 161.197C392.941 168.341 381.065 171.912 367.037 171.912ZM333.083 94.0517H397.644C396.847 82.7814 393.579 74.4477 387.84 69.0506C382.261 63.6535 375.087 60.955 366.32 60.955C357.233 60.955 349.741 63.8123 343.843 69.5268C338.104 75.0826 334.518 83.2576 333.083 94.0517Z"/>
    <path d="M487.042 169.055C474.927 169.055 466 166.277 460.261 160.721C454.523 155.165 451.653 146.514 451.653 134.768V12.6196H476.999V132.863C476.999 138.736 478.275 142.784 480.825 145.006C483.376 147.229 487.281 148.34 492.542 148.34H510.714V169.055H487.042ZM432.285 63.098V42.3828H510.714V63.098H432.285Z"/>
    <path d="M229.312 250.1C269.062 252.824 299.7 270.017 299.7 290.825C299.7 311.634 269.057 328.829 229.3 331.55C247.186 326.684 260.342 310.296 260.342 290.824C260.342 271.356 247.191 254.97 229.312 250.1Z"/>
    <path d="M627.389 60C609.509 64.8703 596.359 81.2558 596.359 100.724C596.359 120.195 609.514 136.584 627.399 141.45C587.643 138.729 557 121.534 557 100.725C557 79.9173 587.638 62.7239 627.389 60Z"/>
  </g>
  <g class="contrast-color" fill="black">
    <path d="M381.338 359.155L320.125 190.1H347.623L397.598 330.583L447.572 190.1H475.07L413.618 359.155H381.338Z"/>
    <path d="M484.889 359.155V232.483H510.235V359.155H484.889ZM484.411 214.149V188.91H510.713V214.149H484.411Z"/>
    <path d="M588.926 362.013C576.492 362.013 565.732 359.314 556.645 353.917C547.718 348.52 540.784 340.821 535.843 330.821C531.06 320.82 528.669 309.153 528.669 295.819C528.669 282.485 531.06 270.898 535.843 261.056C540.784 251.056 547.718 243.357 556.645 237.96C565.572 232.404 576.093 229.626 588.208 229.626C599.686 229.626 609.808 232.325 618.576 237.722C627.343 242.96 634.118 250.579 638.9 260.58C643.842 270.58 646.313 282.644 646.313 296.772V303.201H554.972C555.609 315.582 558.877 324.868 564.775 331.059C570.833 337.25 578.963 340.345 589.165 340.345C596.657 340.345 602.874 338.599 607.816 335.107C612.757 331.615 616.185 326.932 618.098 321.059L644.4 322.725C641.052 334.472 634.437 343.996 624.554 351.298C614.83 358.441 602.954 362.013 588.926 362.013ZM554.972 284.152H619.532C618.735 272.882 615.467 264.548 609.729 259.151C604.149 253.754 596.976 251.055 588.208 251.055C579.122 251.055 571.63 253.913 565.732 259.627C559.993 265.183 556.406 273.358 554.972 284.152Z"/>
    <path d="M686.915 359.155L648.179 232.483H674.721L701.98 331.535L729.956 232.483H753.867L781.843 331.535L809.341 232.483H835.883L797.147 359.155H768.692L741.911 268.675L715.131 359.155H686.915Z"/>
    <path d="M897.755 362.013C885.322 362.013 874.562 359.314 865.475 353.917C856.548 348.52 849.614 340.821 844.672 330.821C839.89 320.82 837.499 309.153 837.499 295.819C837.499 282.485 839.89 270.898 844.672 261.056C849.614 251.056 856.548 243.357 865.475 237.96C874.402 232.404 884.923 229.626 897.038 229.626C908.516 229.626 918.638 232.325 927.406 237.722C936.173 242.96 942.948 250.579 947.73 260.58C952.672 270.58 955.143 282.644 955.143 296.772V303.201H863.801C864.439 315.582 867.707 324.868 873.605 331.059C879.663 337.25 887.792 340.345 897.995 340.345C905.487 340.345 911.704 338.599 916.645 335.107C921.587 331.615 925.014 326.932 926.927 321.059L953.23 322.725C949.882 334.472 943.267 343.996 933.383 351.298C923.659 358.441 911.783 362.013 897.755 362.013ZM863.801 284.152H928.362C927.565 272.882 924.297 264.548 918.558 259.151C912.979 253.754 905.806 251.055 897.038 251.055C887.952 251.055 880.46 253.913 874.561 259.627C868.823 265.183 865.236 273.358 863.801 284.152Z"/>
    <path d="M973.651 359.155V232.483H996.846L997.802 266.056L995.65 265.342C997.403 253.913 1000.91 245.579 1006.17 240.341C1011.59 235.102 1018.84 232.483 1027.93 232.483H1040.12V255.103H1027.93C1021.55 255.103 1016.21 256.135 1011.91 258.199C1007.61 260.262 1004.34 263.437 1002.11 267.723C1000.03 272.009 998.998 277.565 998.998 284.39V359.155H973.651Z"/>
  </g>
</svg>
