<svg width="406" height="65" viewBox="0 0 406 65" fill="none" xmlns="http://www.w3.org/2000/svg">
<path d="M0 63.5984V1.40161H12.0525L40.908 52.1226V1.40161H50.4092V63.5984H37.9169L9.50121 14.0162V63.5984H0Z" fill="black"/>
<path d="M61.3654 63.5984V1.40161H102.009V10.0741H70.8666V28.2075H100.954V36.6173H70.8666V54.9259H102.713V63.5984H61.3654Z" fill="black"/>
<path d="M137.76 65C131.719 65 126.529 63.7152 122.189 61.1455C117.848 58.5175 114.505 54.7799 112.159 49.9326C109.814 45.0854 108.641 39.3037 108.641 32.5876C108.641 25.8715 109.814 20.0898 112.159 15.2426C114.505 10.3369 117.848 6.57008 122.189 3.94205C126.529 1.31402 131.719 0 137.76 0C143.859 0 149.079 1.31402 153.419 3.94205C157.818 6.57008 161.161 10.3369 163.448 15.2426C165.794 20.0898 166.967 25.8715 166.967 32.5876C166.967 39.3037 165.794 45.0854 163.448 49.9326C161.161 54.7799 157.818 58.5175 153.419 61.1455C149.079 63.7152 143.859 65 137.76 65ZM137.76 56.3275C141.807 56.3275 145.267 55.3931 148.141 53.5243C151.073 51.6554 153.302 48.969 154.827 45.465C156.352 41.9025 157.114 37.6101 157.114 32.5876C157.114 27.5651 156.352 23.2727 154.827 19.7102C153.302 16.1478 151.073 13.4322 148.141 11.5633C145.267 9.63612 141.807 8.6725 137.76 8.6725C133.772 8.6725 130.341 9.63612 127.467 11.5633C124.593 13.4322 122.365 16.1478 120.781 19.7102C119.256 23.2727 118.494 27.5651 118.494 32.5876C118.494 37.6101 119.256 41.9025 120.781 45.465C122.365 48.969 124.593 51.6554 127.467 53.5243C130.341 55.3931 133.772 56.3275 137.76 56.3275Z" fill="black"/>
<path d="M198.284 65C193.299 65 188.959 64.0948 185.264 62.2844C181.628 60.4739 178.754 57.9627 176.642 54.7507C174.531 51.5386 173.299 47.801 172.948 43.5377L182.713 42.9245C183.123 45.8446 183.974 48.3266 185.264 50.3706C186.554 52.3562 188.284 53.8747 190.454 54.9259C192.683 55.9187 195.352 56.4151 198.46 56.4151C201.158 56.4151 203.445 56.0939 205.322 55.4515C207.257 54.7507 208.724 53.7287 209.721 52.3854C210.718 51.0422 211.216 49.407 211.216 47.4798C211.216 45.7278 210.776 44.1801 209.897 42.8369C209.076 41.4353 207.463 40.1797 205.058 39.0701C202.712 37.9021 199.252 36.7633 194.677 35.6536C189.692 34.4272 185.704 33.084 182.713 31.624C179.722 30.164 177.552 28.3535 176.203 26.1927C174.912 23.9735 174.267 21.2579 174.267 18.0458C174.267 14.4834 175.118 11.3589 176.818 8.6725C178.578 5.92767 181.071 3.79604 184.296 2.27762C187.522 0.759208 191.393 0 195.909 0C200.659 0 204.706 0.876011 208.049 2.62803C211.451 4.38005 214.119 6.77448 216.055 9.81132C218.049 12.8482 219.281 16.323 219.75 20.2358L209.985 20.7615C209.691 18.367 208.958 16.2646 207.785 14.4542C206.612 12.5854 205.029 11.1545 203.035 10.1617C201.041 9.11051 198.607 8.58491 195.733 8.58491C192.097 8.58491 189.223 9.43171 187.111 11.1253C185.059 12.7606 184.032 14.9506 184.032 17.6954C184.032 19.4474 184.443 20.9367 185.264 22.1631C186.144 23.3311 187.669 24.3531 189.839 25.2291C192.067 26.1051 195.205 27.0395 199.252 28.0323C204.648 29.2588 208.929 30.7772 212.096 32.5876C215.322 34.3396 217.609 36.4129 218.958 38.8073C220.307 41.2017 220.981 43.9173 220.981 46.9542C220.981 50.6334 220.014 53.8455 218.078 56.5903C216.202 59.2767 213.562 61.35 210.161 62.81C206.759 64.27 202.8 65 198.284 65Z" fill="black"/>
<path d="M256.109 65C250.068 65 244.878 63.7152 240.538 61.1455C236.198 58.5175 232.855 54.7799 230.509 49.9326C228.163 45.0854 226.99 39.3037 226.99 32.5876C226.99 25.8715 228.163 20.0898 230.509 15.2426C232.855 10.3369 236.198 6.57008 240.538 3.94205C244.878 1.31402 250.068 0 256.109 0C262.209 0 267.429 1.31402 271.769 3.94205C276.167 6.57008 279.51 10.3369 281.798 15.2426C284.144 20.0898 285.317 25.8715 285.317 32.5876C285.317 39.3037 284.144 45.0854 281.798 49.9326C279.51 54.7799 276.167 58.5175 271.769 61.1455C267.429 63.7152 262.209 65 256.109 65ZM256.109 56.3275C260.156 56.3275 263.616 55.3931 266.49 53.5243C269.423 51.6554 271.651 48.969 273.176 45.465C274.701 41.9025 275.464 37.6101 275.464 32.5876C275.464 27.5651 274.701 23.2727 273.176 19.7102C271.651 16.1478 269.423 13.4322 266.49 11.5633C263.616 9.63612 260.156 8.6725 256.109 8.6725C252.121 8.6725 248.69 9.63612 245.816 11.5633C242.942 13.4322 240.714 16.1478 239.13 19.7102C237.605 23.2727 236.843 27.5651 236.843 32.5876C236.843 37.6101 237.605 41.9025 239.13 45.465C240.714 48.969 242.942 51.6554 245.816 53.5243C248.69 55.3931 252.121 56.3275 256.109 56.3275Z" fill="black"/>
<path d="M293.167 63.5984V1.40161H302.668V60.0943L297.654 54.9259H333.107V63.5984H293.167Z" fill="black"/>
<path d="M337.951 63.5984V1.40161H347.453V63.5984H337.951Z" fill="black"/>
<path d="M352.776 63.5984L373.538 32.4124L352.952 1.40161H364.124L379.52 25.0539L394.651 1.40161H405.736L385.15 32.2372L406 63.5984H394.827L379.344 39.5957L363.86 63.5984H352.776Z" fill="black"/>
</svg>
