<svg width="400" height="80" viewBox="0 0 400 80" fill="none" xmlns="http://www.w3.org/2000/svg">
<path d="M0 80V0L44.1916 80H0Z" fill="black"/>
<path d="M66.2874 0V80L22.0958 0H66.2874Z" fill="black"/>
<path d="M94.084 63.4483V16.4414H103.165L124.908 54.7752V16.4414H132.067V63.4483H122.654L101.243 25.9752V63.4483H94.084Z" fill="black"/>
<path d="M140.322 63.4483V16.4414H170.947V22.9959H147.481V36.7007H170.151V43.0566H147.481V56.8938H171.477V63.4483H140.322Z" fill="black"/>
<path d="M197.884 64.5076C193.333 64.5076 189.422 63.5366 186.152 61.5945C182.881 59.6083 180.362 56.7834 178.595 53.12C176.827 49.4566 175.943 45.0869 175.943 40.011C175.943 34.9352 176.827 30.5655 178.595 26.9021C180.362 23.1945 182.881 20.3476 186.152 18.3614C189.422 16.3752 193.333 15.3821 197.884 15.3821C202.48 15.3821 206.413 16.3752 209.684 18.3614C212.998 20.3476 215.517 23.1945 217.24 26.9021C219.008 30.5655 219.892 34.9352 219.892 40.011C219.892 45.0869 219.008 49.4566 217.24 53.12C215.517 56.7834 212.998 59.6083 209.684 61.5945C206.413 63.5366 202.48 64.5076 197.884 64.5076ZM197.884 57.9531C200.934 57.9531 203.541 57.2469 205.706 55.8345C207.916 54.4221 209.595 52.3917 210.744 49.7434C211.893 47.051 212.468 43.8069 212.468 40.011C212.468 36.2152 211.893 32.971 210.744 30.2786C209.595 27.5862 207.916 25.5338 205.706 24.1214C203.541 22.6648 200.934 21.9365 197.884 21.9365C194.879 21.9365 192.294 22.6648 190.129 24.1214C187.963 25.5338 186.284 27.5862 185.091 30.2786C183.942 32.971 183.367 36.2152 183.367 40.011C183.367 43.8069 183.942 47.051 185.091 49.7434C186.284 52.3917 187.963 54.4221 190.129 55.8345C192.294 57.2469 194.879 57.9531 197.884 57.9531Z" fill="black"/>
<path d="M243.489 64.5076C239.732 64.5076 236.462 63.8234 233.678 62.4552C230.938 61.0869 228.773 59.189 227.182 56.7614C225.591 54.3338 224.663 51.509 224.398 48.2869L231.756 47.8234C232.065 50.0303 232.706 51.9062 233.678 53.451C234.65 54.9517 235.954 56.0993 237.589 56.8938C239.268 57.6441 241.279 58.0193 243.621 58.0193C245.654 58.0193 247.377 57.7766 248.792 57.291C250.25 56.7614 251.355 55.989 252.106 54.9738C252.857 53.9586 253.233 52.7228 253.233 51.2662C253.233 49.9421 252.901 48.7724 252.239 47.7572C251.62 46.6979 250.405 45.749 248.593 44.9103C246.825 44.0276 244.218 43.1669 240.771 42.3283C237.015 41.4014 234.01 40.3862 231.756 39.2828C229.502 38.1793 227.867 36.811 226.85 35.1779C225.878 33.5007 225.392 31.4483 225.392 29.0207C225.392 26.3283 226.033 23.9669 227.314 21.9365C228.64 19.8621 230.518 18.251 232.949 17.1034C235.379 15.9559 238.296 15.3821 241.699 15.3821C245.278 15.3821 248.328 16.0441 250.847 17.3683C253.41 18.6924 255.42 20.5021 256.879 22.7972C258.381 25.0924 259.309 27.7186 259.663 30.6759L252.305 31.0731C252.084 29.2634 251.532 27.6745 250.648 26.3062C249.764 24.8938 248.571 23.8124 247.068 23.0621C245.566 22.2676 243.732 21.8703 241.566 21.8703C238.826 21.8703 236.661 22.5103 235.07 23.7903C233.523 25.0262 232.75 26.6814 232.75 28.7559C232.75 30.08 233.059 31.2055 233.678 32.1324C234.341 33.0152 235.49 33.7876 237.125 34.4497C238.804 35.1117 241.169 35.8179 244.218 36.5683C248.283 37.4952 251.509 38.6428 253.896 40.011C256.326 41.3352 258.05 42.9021 259.066 44.7117C260.083 46.5214 260.591 48.5738 260.591 50.869C260.591 53.6497 259.862 56.0772 258.403 58.1517C256.989 60.1821 255.001 61.749 252.437 62.8524C249.874 63.9559 246.891 64.5076 243.489 64.5076Z" fill="black"/>
<path d="M287.059 64.5076C282.507 64.5076 278.596 63.5366 275.326 61.5945C272.056 59.6083 269.537 56.7834 267.77 53.12C266.002 49.4566 265.118 45.0869 265.118 40.011C265.118 34.9352 266.002 30.5655 267.77 26.9021C269.537 23.1945 272.056 20.3476 275.326 18.3614C278.596 16.3752 282.507 15.3821 287.059 15.3821C291.655 15.3821 295.588 16.3752 298.858 18.3614C302.173 20.3476 304.692 23.1945 306.415 26.9021C308.183 30.5655 309.067 34.9352 309.067 40.011C309.067 45.0869 308.183 49.4566 306.415 53.12C304.692 56.7834 302.173 59.6083 298.858 61.5945C295.588 63.5366 291.655 64.5076 287.059 64.5076ZM287.059 57.9531C290.108 57.9531 292.716 57.2469 294.881 55.8345C297.091 54.4221 298.77 52.3917 299.919 49.7434C301.068 47.051 301.642 43.8069 301.642 40.011C301.642 36.2152 301.068 32.971 299.919 30.2786C298.77 27.5862 297.091 25.5338 294.881 24.1214C292.716 22.6648 290.108 21.9365 287.059 21.9365C284.054 21.9365 281.469 22.6648 279.304 24.1214C277.138 25.5338 275.459 27.5862 274.266 30.2786C273.117 32.971 272.542 36.2152 272.542 40.011C272.542 43.8069 273.117 47.051 274.266 49.7434C275.459 52.3917 277.138 54.4221 279.304 55.8345C281.469 57.2469 284.054 57.9531 287.059 57.9531Z" fill="black"/>
<path d="M314.982 63.4483V16.4414H322.141V60.8L318.362 56.8938H345.076V63.4483H314.982Z" fill="black"/>
<path d="M348.726 63.4483V16.4414H355.885V63.4483H348.726Z" fill="black"/>
<path d="M359.896 63.4483L375.54 39.8786L360.029 16.4414H368.447L380.047 34.3172L391.449 16.4414H399.801L384.29 39.7462L400 63.4483H391.582L379.915 45.3076L368.248 63.4483H359.896Z" fill="black"/>
</svg>
