<svg width="720" height="362" viewBox="0 0 720 362" fill="none" xmlns="http://www.w3.org/2000/svg">
  <g class="bright-color" fill="black">
    <path d="M0 169.055V0H110.231V23.5725H12.1948L25.8242 9.52423V87.1467L12.1948 75.0033H105.927V97.8614H12.1948L25.8242 85.718V169.055H0Z"/>
    <path d="M155.47 169.055C147.181 169.055 140.486 166.912 135.385 162.626C130.284 158.34 127.733 151.515 127.733 142.149V0H153.079V139.768C153.079 142.625 153.797 144.768 155.231 146.197C156.825 147.626 159.057 148.34 161.926 148.34H171.969V169.055H155.47Z"/>
    <path d="M238.775 171.912C226.341 171.912 215.581 169.214 206.495 163.817C197.568 158.42 190.634 150.721 185.692 140.72C180.91 130.72 178.519 119.053 178.519 105.719C178.519 92.385 180.91 80.7972 185.692 70.9555C190.634 60.9551 197.568 53.2563 206.495 47.8592C215.422 42.3034 225.943 39.5255 238.058 39.5255C249.535 39.5255 259.658 42.2241 268.425 47.6211C277.193 52.8595 283.968 60.4788 288.75 70.4793C293.692 80.4797 296.162 92.5438 296.162 106.671V113.1H204.821C205.459 125.482 208.727 134.768 214.625 140.959C220.682 147.149 228.812 150.245 239.014 150.245C246.507 150.245 252.723 148.499 257.665 145.006C262.607 141.514 266.034 136.831 267.947 130.958L294.249 132.625C290.902 144.371 284.286 153.896 274.403 161.198C264.679 168.341 252.803 171.912 238.775 171.912ZM204.821 94.0518H269.382C268.585 82.7814 265.317 74.4477 259.578 69.0507C253.999 63.6536 246.825 60.9551 238.058 60.9551C228.972 60.9551 221.479 63.8123 215.581 69.5269C209.842 75.0827 206.256 83.2576 204.821 94.0518Z"/>
    <path d="M367.037 171.912C354.603 171.912 343.843 169.214 334.757 163.817C325.83 158.42 318.896 150.721 313.954 140.72C309.172 130.72 306.78 119.053 306.78 105.719C306.78 92.385 309.172 80.7972 313.954 70.9555C318.896 60.9551 325.83 53.2563 334.757 47.8592C343.684 42.3034 354.205 39.5255 366.32 39.5255C377.797 39.5255 387.92 42.2241 396.687 47.6211C405.455 52.8595 412.23 60.4788 417.012 70.4793C421.953 80.4797 424.424 92.5438 424.424 106.671V113.1H333.083C333.721 125.482 336.988 134.768 342.887 140.959C348.944 147.149 357.074 150.245 367.276 150.245C374.768 150.245 380.985 148.499 385.927 145.006C390.869 141.514 394.296 136.831 396.209 130.958L422.511 132.625C419.164 144.371 412.548 153.896 402.665 161.198C392.941 168.341 381.065 171.912 367.037 171.912ZM333.083 94.0518H397.644C396.847 82.7814 393.579 74.4477 387.84 69.0507C382.261 63.6536 375.087 60.9551 366.32 60.9551C357.233 60.9551 349.741 63.8123 343.843 69.5269C338.104 75.0827 334.518 83.2576 333.083 94.0518Z"/>
    <path d="M487.042 169.055C474.927 169.055 466 166.277 460.261 160.721C454.523 155.166 451.653 146.514 451.653 134.768V12.6196H476.999V132.863C476.999 138.736 478.275 142.784 480.825 145.006C483.376 147.229 487.281 148.34 492.542 148.34H510.714V169.055H487.042ZM432.285 63.098V42.3828H510.714V63.098H432.285Z"/>
    <path d="M627.389 60C609.509 64.8704 596.359 81.2559 596.359 100.724C596.359 120.195 609.514 136.582 627.398 141.449C587.642 138.728 557 121.534 557 100.725C557 79.9171 587.637 62.7238 627.389 60Z"/>
  </g>
  <g class="contrast-color" fill="black">
    <path d="M61.213 359.155L0 190.1H27.498L77.4727 330.583L127.447 190.1H154.945L93.4933 359.155H61.213Z"/>
    <path d="M164.764 359.155V232.483H190.11V359.155H164.764ZM164.286 214.149V188.91H190.588V214.149H164.286Z"/>
    <path d="M268.801 362.013C256.367 362.013 245.607 359.314 236.52 353.917C227.594 348.52 220.659 340.821 215.718 330.821C210.935 320.82 208.544 309.153 208.544 295.819C208.544 282.485 210.935 270.898 215.718 261.056C220.659 251.056 227.594 243.357 236.52 237.96C245.447 232.404 255.968 229.626 268.083 229.626C279.561 229.626 289.683 232.325 298.451 237.722C307.218 242.96 313.993 250.579 318.775 260.58C323.717 270.58 326.188 282.644 326.188 296.772V303.201H234.847C235.484 315.582 238.752 324.868 244.65 331.059C250.708 337.25 258.838 340.345 269.04 340.345C276.532 340.345 282.749 338.599 287.691 335.107C292.632 331.615 296.06 326.932 297.973 321.059L324.275 322.725C320.927 334.472 314.312 343.996 304.429 351.298C294.705 358.441 282.829 362.013 268.801 362.013ZM234.847 284.152H299.407C298.61 272.882 295.342 264.548 289.604 259.151C284.024 253.754 276.851 251.055 268.083 251.055C258.997 251.055 251.505 253.913 245.607 259.627C239.868 265.183 236.281 273.358 234.847 284.152Z"/>
    <path d="M366.79 359.155L328.054 232.483H354.596L381.855 331.535L409.831 232.483H433.742L461.718 331.535L489.216 232.483H515.758L477.022 359.155H448.567L421.787 268.675L395.006 359.155H366.79Z"/>
    <path d="M577.63 362.013C565.197 362.013 554.436 359.314 545.35 353.917C536.423 348.52 529.489 340.821 524.547 330.821C519.765 320.82 517.374 309.153 517.374 295.819C517.374 282.485 519.765 270.898 524.547 261.056C529.489 251.056 536.423 243.357 545.35 237.96C554.277 232.404 564.798 229.626 576.913 229.626C588.391 229.626 598.513 232.325 607.28 237.722C616.048 242.96 622.823 250.579 627.605 260.58C632.547 270.58 635.018 282.644 635.018 296.772V303.201H543.676C544.314 315.582 547.582 324.868 553.48 331.059C559.538 337.25 567.667 340.345 577.87 340.345C585.362 340.345 591.579 338.599 596.52 335.107C601.462 331.615 604.889 326.932 606.802 321.059L633.105 322.725C629.757 334.472 623.142 343.996 613.258 351.298C603.534 358.441 591.658 362.013 577.63 362.013ZM543.676 284.152H608.237C607.44 272.882 604.172 264.548 598.433 259.151C592.854 253.754 585.681 251.055 576.913 251.055C567.827 251.055 560.335 253.913 554.436 259.627C548.698 265.183 545.111 273.358 543.676 284.152Z"/>
    <path d="M653.526 359.155V232.483H676.721L677.677 266.056L675.525 265.342C677.278 253.913 680.785 245.579 686.046 240.341C691.466 235.102 698.719 232.483 707.805 232.483H720V255.103H707.805C701.429 255.103 696.089 256.135 691.785 258.199C687.481 260.262 684.213 263.437 681.981 267.723C679.909 272.009 678.873 277.565 678.873 284.39V359.155H653.526Z"/>
    <path d="M649.609 60C689.36 62.7242 719.996 79.9174 719.996 100.725C719.996 121.534 689.355 138.727 649.6 141.449C667.484 136.582 680.639 120.195 680.639 100.724C680.639 81.2559 667.489 64.8704 649.609 60Z"/>
  </g>
</svg>
