<svg width="1461" height="174" viewBox="0 0 1461 174" fill="none" xmlns="http://www.w3.org/2000/svg">
  <g class="bright-color" fill="black">
    <path d="M0 170.245V1.18994H110.231V24.7624H12.1948L25.8242 10.7142V88.3366L12.1948 76.1932H105.927V99.0513H12.1948L25.8242 86.9079V170.245H0Z"/>
    <path d="M155.47 170.245C147.181 170.245 140.486 168.102 135.385 163.816C130.284 159.53 127.733 152.704 127.733 143.339V1.18994H153.079V140.958C153.079 143.815 153.797 145.958 155.231 147.387C156.825 148.815 159.057 149.53 161.926 149.53H171.969V170.245H155.47Z"/>
    <path d="M238.775 173.102C226.341 173.102 215.581 170.404 206.495 165.007C197.568 159.609 190.634 151.911 185.692 141.91C180.91 131.91 178.519 120.243 178.519 106.909C178.519 93.5749 180.91 81.9871 185.692 72.1454C190.634 62.145 197.568 54.4462 206.495 49.0492C215.422 43.4934 225.943 40.7155 238.058 40.7155C249.535 40.7155 259.658 43.414 268.425 48.811C277.193 54.0494 283.968 61.6687 288.75 71.6692C293.692 81.6696 296.162 93.7336 296.162 107.861V114.29H204.821C205.459 126.672 208.727 135.958 214.625 142.148C220.682 148.339 228.812 151.435 239.014 151.435C246.506 151.435 252.723 149.688 257.665 146.196C262.607 142.704 266.034 138.021 267.947 132.148L294.249 133.815C290.902 145.561 284.286 155.085 274.403 162.387C264.679 169.531 252.803 173.102 238.775 173.102ZM204.821 95.2416H269.382C268.585 83.9713 265.317 75.6376 259.578 70.2405C253.999 64.8435 246.825 62.145 238.058 62.145C228.972 62.145 221.479 65.0022 215.581 70.7168C209.842 76.2725 206.256 84.4475 204.821 95.2416Z"/>
    <path d="M367.037 173.102C354.603 173.102 343.843 170.404 334.757 165.007C325.83 159.609 318.896 151.911 313.954 141.91C309.172 131.91 306.78 120.243 306.78 106.909C306.78 93.5749 309.172 81.9871 313.954 72.1454C318.896 62.145 325.83 54.4462 334.757 49.0492C343.684 43.4934 354.205 40.7155 366.32 40.7155C377.797 40.7155 387.92 43.414 396.687 48.811C405.455 54.0494 412.229 61.6687 417.012 71.6692C421.953 81.6696 424.424 93.7336 424.424 107.861V114.29H333.083C333.721 126.672 336.988 135.958 342.887 142.148C348.944 148.339 357.074 151.435 367.276 151.435C374.768 151.435 380.985 149.688 385.927 146.196C390.869 142.704 394.296 138.021 396.209 132.148L422.511 133.815C419.164 145.561 412.548 155.085 402.665 162.387C392.941 169.531 381.065 173.102 367.037 173.102ZM333.083 95.2416H397.644C396.847 83.9713 393.579 75.6376 387.84 70.2405C382.261 64.8435 375.087 62.145 366.32 62.145C357.233 62.145 349.741 65.0022 343.843 70.7168C338.104 76.2725 334.518 84.4475 333.083 95.2416Z"/>
    <path d="M487.042 170.245C474.927 170.245 466 167.467 460.261 161.911C454.523 156.355 451.653 147.704 451.653 135.958V13.8095H476.999V134.053C476.999 139.926 478.275 143.974 480.825 146.196C483.376 148.419 487.281 149.53 492.542 149.53H510.714V170.245H487.042ZM432.285 64.2879V43.5727H510.714V64.2879H432.285Z"/>
    <path d="M627.389 61.1899C609.509 66.0603 596.359 82.4458 596.359 101.914C596.359 121.385 609.514 137.772 627.398 142.639C587.642 139.917 557 122.724 557 101.915C557 81.1071 587.637 63.9138 627.389 61.1899Z"/>
  </g>
  <g class="contrast-color" fill="black">
    <path d="M801.633 170.246L740.42 1.19052H767.918L817.893 141.673L867.867 1.19052H895.365L833.913 170.246H801.633Z"/>
    <path d="M905.184 170.246V43.5733H930.53V170.246H905.184ZM904.706 25.2392V0H931.008V25.2392H904.706Z"/>
    <path d="M1009.22 173.103C996.787 173.103 986.027 170.404 976.94 165.007C968.013 159.61 961.079 151.911 956.137 141.911C951.355 131.911 948.964 120.243 948.964 106.909C948.964 93.5755 951.355 81.9877 956.137 72.146C961.079 62.1456 968.013 54.4468 976.94 49.0498C985.867 43.494 996.388 40.7161 1008.5 40.7161C1019.98 40.7161 1030.1 43.4146 1038.87 48.8117C1047.64 54.05 1054.41 61.6694 1059.2 71.6698C1064.14 81.6702 1066.61 93.7343 1066.61 107.862V114.291H975.266C975.904 126.672 979.172 135.958 985.07 142.149C991.128 148.34 999.258 151.435 1009.46 151.435C1016.95 151.435 1023.17 149.689 1028.11 146.197C1033.05 142.705 1036.48 138.022 1038.39 132.149L1064.69 133.815C1061.35 145.562 1054.73 155.086 1044.85 162.388C1035.12 169.531 1023.25 173.103 1009.22 173.103ZM975.266 95.2423H1039.83C1039.03 83.972 1035.76 75.6382 1030.02 70.2412C1024.44 64.8441 1017.27 62.1456 1008.5 62.1456C999.417 62.1456 991.925 65.0028 986.027 70.7174C980.288 76.2732 976.701 84.4482 975.266 95.2423Z"/>
    <path d="M1107.21 170.246L1068.47 43.5733H1095.02L1122.27 142.625L1150.25 43.5733H1174.16L1202.14 142.625L1229.64 43.5733H1256.18L1217.44 170.246H1188.99L1162.21 79.7654L1135.43 170.246H1107.21Z"/>
    <path d="M1318.05 173.103C1305.62 173.103 1294.86 170.404 1285.77 165.007C1276.84 159.61 1269.91 151.911 1264.97 141.911C1260.19 131.911 1257.79 120.243 1257.79 106.909C1257.79 93.5755 1260.19 81.9877 1264.97 72.146C1269.91 62.1456 1276.84 54.4468 1285.77 49.0498C1294.7 43.494 1305.22 40.7161 1317.33 40.7161C1328.81 40.7161 1338.93 43.4146 1347.7 48.8117C1356.47 54.05 1363.24 61.6694 1368.03 71.6698C1372.97 81.6702 1375.44 93.7343 1375.44 107.862V114.291H1284.1C1284.73 126.672 1288 135.958 1293.9 142.149C1299.96 148.34 1308.09 151.435 1318.29 151.435C1325.78 151.435 1332 149.689 1336.94 146.197C1341.88 142.705 1345.31 138.022 1347.22 132.149L1373.52 133.815C1370.18 145.562 1363.56 155.086 1353.68 162.388C1343.95 169.531 1332.08 173.103 1318.05 173.103ZM1284.1 95.2423H1348.66C1347.86 83.972 1344.59 75.6382 1338.85 70.2412C1333.27 64.8441 1326.1 62.1456 1317.33 62.1456C1308.25 62.1456 1300.75 65.0028 1294.86 70.7174C1289.12 76.2732 1285.53 84.4482 1284.1 95.2423Z"/>
    <path d="M1393.95 170.246V43.5733H1417.14L1418.1 77.1462L1415.94 76.4319C1417.7 65.0029 1421.21 56.6692 1426.47 51.4308C1431.89 46.1925 1439.14 43.5733 1448.23 43.5733H1460.42V66.1934H1448.23C1441.85 66.1934 1436.51 67.2252 1432.2 69.2888C1427.9 71.3523 1424.63 74.5271 1422.4 78.813C1420.33 83.0989 1419.29 88.6547 1419.29 95.4804V170.246H1393.95Z"/>
    <path d="M649.609 61.1899C689.36 63.9141 719.996 81.1074 719.996 101.915C719.996 122.724 689.355 139.917 649.6 142.639C667.484 137.772 680.639 121.385 680.639 101.914C680.639 82.4459 667.489 66.0603 649.609 61.1899Z"/>
  </g>
</svg>
