<svg width="1421" height="174" viewBox="0 0 1421 174" fill="none" xmlns="http://www.w3.org/2000/svg">
  <g class="bright-color" fill="black">
    <path d="M0 170.245V1.18994H110.231V24.7624H12.1948L25.8242 10.7142V88.3366L12.1948 76.1932H105.927V99.0513H12.1948L25.8242 86.9079V170.245H0Z"/>
    <path d="M155.47 170.245C147.181 170.245 140.486 168.102 135.385 163.816C130.284 159.53 127.733 152.704 127.733 143.339V1.18994H153.079V140.958C153.079 143.815 153.797 145.958 155.231 147.387C156.825 148.815 159.057 149.53 161.926 149.53H171.969V170.245H155.47Z"/>
    <path d="M238.775 173.102C226.341 173.102 215.581 170.404 206.495 165.007C197.568 159.609 190.634 151.911 185.692 141.91C180.91 131.91 178.519 120.243 178.519 106.909C178.519 93.5749 180.91 81.9871 185.692 72.1454C190.634 62.145 197.568 54.4462 206.495 49.0492C215.422 43.4934 225.943 40.7155 238.058 40.7155C249.535 40.7155 259.658 43.414 268.425 48.811C277.193 54.0494 283.968 61.6687 288.75 71.6692C293.692 81.6696 296.162 93.7336 296.162 107.861V114.29H204.821C205.459 126.672 208.727 135.958 214.625 142.148C220.682 148.339 228.812 151.435 239.014 151.435C246.506 151.435 252.723 149.688 257.665 146.196C262.607 142.704 266.034 138.021 267.947 132.148L294.249 133.815C290.902 145.561 284.286 155.085 274.403 162.387C264.679 169.531 252.803 173.102 238.775 173.102ZM204.821 95.2416H269.382C268.585 83.9713 265.317 75.6376 259.578 70.2405C253.999 64.8435 246.825 62.145 238.058 62.145C228.972 62.145 221.479 65.0022 215.581 70.7168C209.842 76.2725 206.256 84.4475 204.821 95.2416Z"/>
    <path d="M367.037 173.102C354.603 173.102 343.843 170.404 334.757 165.007C325.83 159.609 318.896 151.911 313.954 141.91C309.172 131.91 306.78 120.243 306.78 106.909C306.78 93.5749 309.172 81.9871 313.954 72.1454C318.896 62.145 325.83 54.4462 334.757 49.0492C343.684 43.4934 354.205 40.7155 366.32 40.7155C377.797 40.7155 387.92 43.414 396.687 48.811C405.455 54.0494 412.229 61.6687 417.012 71.6692C421.953 81.6696 424.424 93.7336 424.424 107.861V114.29H333.083C333.721 126.672 336.988 135.958 342.887 142.148C348.944 148.339 357.074 151.435 367.276 151.435C374.768 151.435 380.985 149.688 385.927 146.196C390.869 142.704 394.296 138.021 396.209 132.148L422.511 133.815C419.164 145.561 412.548 155.085 402.665 162.387C392.941 169.531 381.065 173.102 367.037 173.102ZM333.083 95.2416H397.644C396.847 83.9713 393.579 75.6376 387.84 70.2405C382.261 64.8435 375.087 62.145 366.32 62.145C357.233 62.145 349.741 65.0022 343.843 70.7168C338.104 76.2725 334.518 84.4475 333.083 95.2416Z"/>
    <path d="M487.042 170.245C474.927 170.245 466 167.467 460.261 161.911C454.523 156.355 451.653 147.704 451.653 135.958V13.8095H476.999V134.053C476.999 139.926 478.275 143.974 480.825 146.196C483.376 148.419 487.281 149.53 492.542 149.53H510.714V170.245H487.042ZM432.285 64.2879V43.5727H510.714V64.2879H432.285Z"/>
    <path d="M1327.89 61.1899C1310.01 66.0603 1296.86 82.4458 1296.86 101.914C1296.86 121.385 1310.01 137.772 1327.9 142.639C1288.14 139.917 1257.5 122.724 1257.5 101.915C1257.5 81.1071 1288.14 63.9138 1327.89 61.1899Z"/>
  </g>
  <g class="contrast-color" fill="black">
    <path d="M578.713 170.246L517.5 1.19052H544.998L594.973 141.673L644.947 1.19052H672.445L610.993 170.246H578.713Z"/>
    <path d="M682.264 170.246V43.5733H707.61V170.246H682.264ZM681.786 25.2392V0H708.088V25.2392H681.786Z"/>
    <path d="M786.301 173.103C773.867 173.103 763.107 170.404 754.02 165.007C745.093 159.61 738.159 151.911 733.218 141.911C728.435 131.911 726.044 120.243 726.044 106.909C726.044 93.5755 728.435 81.9877 733.218 72.146C738.159 62.1456 745.093 54.4468 754.02 49.0498C762.947 43.494 773.468 40.7161 785.583 40.7161C797.061 40.7161 807.183 43.4146 815.951 48.8117C824.718 54.05 831.493 61.6694 836.275 71.6698C841.217 81.6702 843.688 93.7343 843.688 107.862V114.291H752.347C752.984 126.672 756.252 135.958 762.15 142.149C768.208 148.34 776.338 151.435 786.54 151.435C794.032 151.435 800.249 149.689 805.191 146.197C810.132 142.705 813.56 138.022 815.473 132.149L841.775 133.815C838.427 145.562 831.812 155.086 821.929 162.388C812.205 169.531 800.329 173.103 786.301 173.103ZM752.347 95.2423H816.907C816.11 83.972 812.842 75.6382 807.104 70.2412C801.524 64.8441 794.351 62.1456 785.583 62.1456C776.497 62.1456 769.005 65.0028 763.107 70.7174C757.368 76.2732 753.781 84.4482 752.347 95.2423Z"/>
    <path d="M884.29 170.246L845.554 43.5733H872.096L899.355 142.625L927.331 43.5733H951.242L979.218 142.625L1006.72 43.5733H1033.26L994.522 170.246H966.067L939.286 79.7654L912.506 170.246H884.29Z"/>
    <path d="M1095.13 173.103C1082.7 173.103 1071.94 170.404 1062.85 165.007C1053.92 159.61 1046.99 151.911 1042.05 141.911C1037.27 131.911 1034.87 120.243 1034.87 106.909C1034.87 93.5755 1037.27 81.9877 1042.05 72.146C1046.99 62.1456 1053.92 54.4468 1062.85 49.0498C1071.78 43.494 1082.3 40.7161 1094.41 40.7161C1105.89 40.7161 1116.01 43.4146 1124.78 48.8117C1133.55 54.05 1140.32 61.6694 1145.11 71.6698C1150.05 81.6702 1152.52 93.7343 1152.52 107.862V114.291H1061.18C1061.81 126.672 1065.08 135.958 1070.98 142.149C1077.04 148.34 1085.17 151.435 1095.37 151.435C1102.86 151.435 1109.08 149.689 1114.02 146.197C1118.96 142.705 1122.39 138.022 1124.3 132.149L1150.6 133.815C1147.26 145.562 1140.64 155.086 1130.76 162.388C1121.03 169.531 1109.16 173.103 1095.13 173.103ZM1061.18 95.2423H1125.74C1124.94 83.972 1121.67 75.6382 1115.93 70.2412C1110.35 64.8441 1103.18 62.1456 1094.41 62.1456C1085.33 62.1456 1077.83 65.0028 1071.94 70.7174C1066.2 76.2732 1062.61 84.4482 1061.18 95.2423Z"/>
    <path d="M1171.03 170.246V43.5733H1194.22L1195.18 77.1462L1193.02 76.4319C1194.78 65.0029 1198.29 56.6692 1203.55 51.4308C1208.97 46.1925 1216.22 43.5733 1225.31 43.5733H1237.5V66.1934H1225.31C1218.93 66.1934 1213.59 67.2252 1209.28 69.2888C1204.98 71.3523 1201.71 74.5271 1199.48 78.813C1197.41 83.0989 1196.37 88.6547 1196.37 95.4804V170.246H1171.03Z"/>
    <path d="M1350.11 61.1899C1389.86 63.9141 1420.5 81.1074 1420.5 101.915C1420.5 122.724 1389.85 139.917 1350.1 142.639C1367.98 137.772 1381.14 121.385 1381.14 101.914C1381.14 82.4459 1367.99 66.0603 1350.11 61.1899Z"/>
  </g>
</svg>
